# xmcd
# 
# Track frame offsets:
#	150
#	20335
#	40287
#	65695
#	83830
#	104337
#	123092
#	145112
#	162777
#	176062
#	190590
#	210247
#	229797
#	251565
#	272907
#	294355
#	305212
#	324547
#
# Disc length: 4536 seconds
#
# Revision: 1
# Processed by: cddbd v1.4PL0 Copyright (c) Steve Scherf et al.
# Submitted via: Audio-CD-Archiv 2.10.441
#
DISCID=fb11b612
DTITLE=Lou Rawls - Love Songs
DYEAR=1995
DGENRE=blues
TTITLE0=You'll Never Find Another Love like Mine
TTITLE1=Spring Again
TTITLE2=Early Morning Love
TTITLE3=Lady Love
TTITLE4=If I Coulda, Woulda, Shoulda
TTITLE5=Willow Weep For Me
TTITLE6=(Will You) Kiss Me One More Time
TTITLE7=Wind Beneath My Wings
TTITLE8=When The Night Comes
TTITLE9=Midnight Sunshine
TTITLE10=We'll Be Together Again
TTITLE11=In The Middle Of The Night
TTITLE12=Close Company
TTITLE13=Forever I Do (The Wedding Song)
TTITLE14=The Lady In My Life
TTITLE15=The Way You Look Tonight
TTITLE16=Learn To Love Again
TTITLE17=It Never Entered My Mind
EXTD=
EXTT0=
EXTT1=
EXTT2=
EXTT3=
EXTT4=
EXTT5=
EXTT6=
EXTT7=
EXTT8=
EXTT9=
EXTT10=
EXTT11=
EXTT12=
EXTT13=
EXTT14=
EXTT15=
EXTT16=
EXTT17=
PLAYORDER=
